<?xml version="1.0" standalone="no"?>
<!DOCTYPE svg PUBLIC "-//W3C//DTD SVG 1.1//EN" "http://www.w3.org/Graphics/SVG/1.1/DTD/svg11.dtd" >
<!--
2013-9-30: Created.
-->
<svg>
<metadata>
Created by iconfont
</metadata>
<defs>

<font id="iconfont" horiz-adv-x="1024" >
  <font-face
    font-family="iconfont"
    font-weight="500"
    font-stretch="normal"
    units-per-em="1024"
    ascent="896"
    descent="-128"
  />
    <missing-glyph />
    
    <glyph glyph-name="sanjiaoxing" unicode="&#58949;" d="M681.409197-69.427317L47.144866 603.134538A169.369261 169.369261 0 0 0 61.480837 851.146842 190.463619 190.463619 0 0 0 185.17979 895.997952h1268.528663C1555.698649 895.997952 1638.437683 817.354909 1638.437683 720.484703c0-43.212714-16.793566-84.78703-47.103906-117.145366L957.069446-69.427317a191.897216 191.897216 0 0 0-275.660249 0z"  horiz-adv-x="1638" />

    
    <glyph glyph-name="sanjiaoxing-copy" unicode="&#59118;" d="M961.25746957 837.427317L1595.52180057 164.86546199999998A169.369261 169.369261 0 0 0 1581.18582957-83.14684199999999 190.463619 190.463619 0 0 0 1457.48687657-127.99795200000005l-1268.528663 0C86.96801757-127.99795200000005 4.22898357-49.35490900000002 4.22898357 47.51529700000003c0 43.212714 16.793566 84.78703 47.103906 117.14536601L685.59722057 837.427317a191.897216 191.897216 0 0 0 275.660249 0z"  horiz-adv-x="1638" />

    
    <glyph glyph-name="pingjunzhengqueshuai" unicode="&#59073;" d="M675.328 492.032H226.816c-18.432 0-33.28-14.848-33.28-33.28s14.848-33.28 33.28-33.28H675.84c18.432 0 33.28 14.848 33.28 33.28-0.512 18.432-15.36 33.28-33.792 33.28zM226.816 275.968h415.744c18.432 0 33.28 14.848 33.28 33.28s-14.848 33.28-33.28 33.28H226.816c-18.432 0-33.28-14.848-33.28-33.28s14.848-33.28 33.28-33.28zM226.816 126.464h265.728c18.432 0 33.28 14.848 33.28 33.28s-14.848 33.28-33.28 33.28H226.816c-18.432 0-33.28-14.848-33.28-33.28s14.848-33.28 33.28-33.28zM193.536 608.768c0-18.432 14.848-33.28 33.28-33.28h216.064c18.432 0 33.28 14.848 33.28 33.28s-14.848 33.28-33.28 33.28H226.816c-18.432 0-33.28-14.848-33.28-33.28zM93.184 824.832h465.92v-216.576c0-18.432 14.848-32.768 32.768-32.768H808.96V286.72c0-18.432 14.848-32.768 32.768-32.768 18.432 0 32.768 14.848 32.768 32.768V620.032L621.568 890.88l-0.512 0.512H85.504C53.248 891.392 27.136 865.28 27.136 833.536v-898.048c0-32.256 26.112-58.368 57.856-58.368h407.04c18.432 0 32.768 14.848 32.768 32.768 0 18.432-14.848 32.768-32.768 32.768h-399.36V824.832z m532.48-182.784V776.704l125.952-134.656h-125.952zM989.184 240.128c-15.872 12.288-38.912 9.216-51.2-6.656l-203.264-266.24-128.512 112.64c-15.36 13.312-38.4 11.776-51.712-3.584-13.312-15.36-11.776-38.4 3.584-51.712l158.208-138.24c15.872-13.824 40.448-11.776 53.248 5.12l227.328 297.472c11.264 15.36 8.192 38.4-7.68 51.2z"  horiz-adv-x="1024" />

    
    <glyph glyph-name="haoshi" unicode="&#59026;" d="M686.08 394.24c10.24 0 10.24 0 20.48-10.24s10.24-10.24 10.24-20.48-10.24-20.48-30.72-20.48H542.72l-102.4-153.6c-10.24-10.24-10.24-10.24-20.48-10.24S409.6 189.44 409.6 199.68l102.4 153.6V568.32c0 10.24 10.24 20.48 20.48 20.48s30.72-10.24 30.72-20.48v-174.08h122.88zM942.08 363.52h-61.44c-20.48 0-30.72 10.24-30.72 20.48s10.24 20.48 20.48 20.48h92.16c40.96 0 51.2-10.24 51.2-40.96 0-61.44-20.48-122.88-40.96-174.08-10.24-61.44-51.2-122.88-102.4-163.84C778.24-66.56 655.36-128 512-128c-71.68 0-133.12 10.24-194.56 40.96-61.44 20.48-122.88 61.44-163.84 112.64C61.44 117.76 0 240.64 0 384c0 71.68 10.24 133.12 40.96 194.56 20.48 61.44 61.44 122.88 112.64 163.84C204.8 793.6 256 824.32 317.44 855.04a512 512 0 0 0 389.12 0c30.72-10.24 61.44-30.72 92.16-51.2V855.04c0 10.24 0 20.48 10.24 30.72s20.48 10.24 30.72 10.24c20.48 0 40.96-10.24 40.96-40.96l10.24-133.12c0-10.24 0-20.48-10.24-30.72-10.24-10.24-20.48-10.24-30.72-10.24l-143.36-10.24c-20.48 0-40.96 20.48-40.96 40.96s20.48 40.96 40.96 40.96h40.96c-20.48 10.24-40.96 20.48-71.68 30.72C634.88 803.84 583.68 814.08 532.48 814.08v-71.68c0-10.24 0-10.24-10.24-20.48 0 0-10.24-10.24-20.48-10.24s-20.48 10.24-20.48 20.48V814.08c-51.2 0-92.16-10.24-143.36-30.72-10.24 0-20.48-10.24-30.72-10.24l10.24-20.48c10.24-10.24 0-20.48-10.24-30.72 0-10.24-10.24-10.24-20.48 10.24l-10.24 20.48c-30.72-20.48-51.2-40.96-71.68-61.44-20.48-20.48-40.96-40.96-61.44-71.68l20.48-10.24c20.48-10.24 20.48-20.48 10.24-30.72 0-10.24-10.24-10.24-10.24-10.24h-20.48l-20.48 10.24c0-10.24-10.24-20.48-10.24-30.72-20.48-40.96-30.72-92.16-30.72-143.36h71.68c10.24 0 20.48-10.24 20.48-20.48s-10.24-20.48-20.48-20.48H81.92c0-61.44 20.48-122.88 51.2-174.08l20.48 10.24c10.24 10.24 20.48 0 30.72-10.24 10.24-10.24 0-30.72-10.24-30.72l-30.72-10.24c20.48-30.72 40.96-51.2 61.44-71.68 20.48-20.48 40.96-40.96 71.68-61.44l10.24 20.48c10.24 20.48 20.48 20.48 30.72 10.24 10.24-10.24 10.24-20.48 10.24-30.72l-10.24-20.48c10.24 0 20.48-10.24 30.72-10.24 40.96-20.48 92.16-30.72 143.36-30.72v61.44c0 10.24 10.24 20.48 20.48 20.48s20.48-10.24 20.48-20.48v-71.68c61.44 0 122.88 20.48 174.08 51.2l-10.24 20.48v20.48c0 10.24 10.24 10.24 10.24 10.24 10.24 10.24 20.48 0 30.72-10.24l10.24-20.48c30.72 20.48 51.2 40.96 71.68 61.44 20.48 20.48 40.96 40.96 61.44 71.68l-20.48 10.24c-10.24 0-10.24 10.24-10.24 10.24v20.48c10.24 10.24 20.48 10.24 30.72 10.24l20.48-10.24c0 10.24 10.24 20.48 10.24 30.72 20.48 40.96 30.72 92.16 30.72 143.36z"  horiz-adv-x="1024" />

    
    <glyph glyph-name="jindu" unicode="&#58885;" d="M512 896a512 512 0 1 1 0-1024A512 512 0 0 1 512 896z m0-928.036571A416.036571 416.036571 0 0 0 512 800.036571V384l294.180571-294.180571A414.72 414.72 0 0 0 512-31.963429z"  horiz-adv-x="1024" />

    
    <glyph glyph-name="add" unicode="&#58884;" d="M512.277-58.412000000000035c-118.89 0-230.659 46.078-314.73 129.73S67.12 266.33399999999995 67.12 384.778s46.327 229.744 130.398 313.427 195.82 129.73 314.73 129.73 230.659-46.078 314.72-129.73S957.397 503.19 957.397 384.817 911.078 155.03999999999996 826.97 71.35799999999995s-195.8-129.77-314.692-129.77z m0 822.784c-101.972 0-197.809-39.494-269.865-111.222s-111.7-166.997-111.7-268.373 39.653-196.695 111.67-268.335S410.246 5.220000000000027 512.248 5.220000000000027s197.809 39.484 269.865 111.222 111.7 166.998 111.67 268.374c-0.03 101.375-39.654 196.665-111.67 268.303S614.22 764.3720000000001 512.277 764.3720000000001z m222.585-347.8H544.073V607.36c-0.76 17.561-15.613 31.18-33.173 30.419-16.495-0.714-29.704-13.924-30.419-30.419v-190.787H289.703c-17.56-0.761-31.179-15.614-30.419-33.174 0.715-16.494 13.924-29.703 30.42-30.418H480.48v-190.788c0.761-17.56 15.614-31.179 33.174-30.419 16.494 0.715 29.703 13.925 30.418 30.42V352.98h190.788c17.56-0.762 32.413 12.857 33.173 30.418 0.762 17.561-12.858 32.414-30.419 33.174a31.683 31.683 0 0 1-2.753 0z"  horiz-adv-x="1028" />

    
    <glyph glyph-name="dingwei" unicode="&#58883;" d="M524.8-128v96h-28.8V-128h28.8m0 928V896h-28.8v-96h28.8M96 371.2v28.8H0v-28.8h96M1024 400h-96v-28.8H1024v28.8z"  horiz-adv-x="1024" />

    
    <glyph glyph-name="xie" unicode="&#58942;" d="M717.024 556.578L599.081 674.004 245.244 321.726l117.944-117.422z m117.95 117.426c16.28 16.21 16.28 42.496 0 58.711l-58.977 58.71c-16.285 16.21-42.688 16.21-58.973 0l-88.455-88.07 117.945-117.422 88.46 88.071zM215.521 292.396l-39.257-156.533 157.226 39.093z m700.903-242.34H106.468c-23.136 0-41.894-18.715-41.894-41.792 0-23.083 18.758-41.8 41.894-41.8h809.955c23.135 0 41.894 18.717 41.894 41.8 0 23.077-18.758 41.792-41.893 41.792z"  horiz-adv-x="1024" />

    
    <glyph glyph-name="arrow-right-bold-copy" unicode="&#59115;" d="M640 384L292.266667 74.66666699999996c-17.066667-14.933333-19.2-42.66666701-4.266667-59.733334 14.933333-17.066667 42.66666701-19.2 59.733333-4.266666l384 341.333333c10.666667 8.533333 14.933333 19.2 14.93333399 32s-4.266667 23.466667-14.93333399 32l-384 341.333333c-8.533333 6.4-19.2 10.666667-27.733333 10.666667-12.8 0-23.466667-4.266667-32-14.933333-14.933333-17.066667-14.933333-44.8 4.266667-59.733334L640 384z"  horiz-adv-x="1024" />

    
    <glyph glyph-name="guanbi" unicode="&#59019;" d="M589.704 394.326L998.27 802.893c20.652 20.653 20.652 54.556 0 75.209l-2.237 2.237c-20.652 20.652-54.556 20.652-75.208 0L512.258 471.255 103.691 880.511c-20.652 20.652-54.556 20.652-75.208 0l-2.238-2.237c-21.168-20.652-21.168-54.556 0-75.208l408.568-408.74L26.245-14.24c-20.652-20.652-20.652-54.556 0-75.208l2.238-2.238c20.652-20.652 54.556-20.652 75.208 0l408.567 408.568 408.568-408.568c20.652-20.652 54.556-20.652 75.208 0l2.237 2.238c20.652 20.652 20.652 54.556 0 75.208L589.704 394.326z"  horiz-adv-x="1024" />

    
    <glyph glyph-name="qianwang" unicode="&#59085;" d="M666.297483 369.847045a36.197751 36.197751 0 0 1 0 28.153806 36.563385 36.563385 0 0 1-7.897691 11.77341L451.524162 616.649891a36.563385 36.563385 0 0 1-51.700626-51.700626l144.425369-144.425369H53.714537a36.563385 36.563385 0 1 1 0-73.126769h490.534368L399.823536 202.971758a36.563385 36.563385 0 1 1 51.700626-51.700626l206.87563 206.87563a36.563385 36.563385 0 0 1 7.897691 11.700283zM492.621406-127.853746A510.717356 510.717356 0 0 0 20.076223 187.176375a36.563385 36.563385 0 1 0 67.496008 28.153807 438.760616 438.760616 0 1 1 0 337.553167 36.563385 36.563385 0 1 0-67.496008 28.153806A511.887385 511.887385 0 1 0 492.621406-127.853746z"  horiz-adv-x="1024" />

    
    <glyph glyph-name="fanhui-copy" unicode="&#59116;" d="M904.817574 617.8598323L511.797385 224.83964430000003 118.777197 617.8598323c-12.258185 12.258185-32.892131 12.432147-45.51052-0.187265-12.707416-12.707416-12.703323-32.995485-0.187265-45.511543L484.739123 160.50029029999996c7.120165-7.120165 17.065677-10.163477 26.624381-8.990768 9.755178-1.50016699 20.010753 1.5104 27.491121 8.990768l411.660734 411.660734c12.258185 12.258185 12.432147 32.892131-0.187265 45.511543-12.707416 12.707416-32.995485 12.7023-45.51052 0.187265z"  horiz-adv-x="1024" />

    
    <glyph glyph-name="fanhui-copy-copy" unicode="&#59117;" d="M119.182426 171.47350102999997L512.202615 564.49368903 905.222803 171.47350102999997c12.258185-12.258185 32.892131-12.432147 45.51052 0.187265 12.707416 12.707416 12.703323 32.995485 0.187265 45.511543L539.260877 628.83304303c-7.120165 7.120165-17.065677 10.163477-26.624381 8.990768-9.755178 1.50016699-20.010753-1.5104-27.491121-8.990768l-411.660734-411.660734c-12.258185-12.258185-12.432147-32.892131 0.187265-45.511543 12.707416-12.707416 32.995485-12.7023 45.51052-0.187265z"  horiz-adv-x="1024" />

    
    <glyph glyph-name="fanhui" unicode="&#58882;" d="M532.526499-8.817574L139.506311 384.202615 532.526499 777.222803c12.258185 12.258185 12.432147 32.892131-0.187265 45.51052-12.707416 12.707416-32.995485 12.703323-45.511543 0.187265L75.166957 411.260877c-7.120165-7.120165-10.163477-17.065677-8.990768-26.624381-1.500167-9.755178 1.5104-20.010753 8.990768-27.491121l411.660734-411.660734c12.258185-12.258185 32.892131-12.432147 45.511543 0.187265 12.707416 12.707416 12.7023 32.995485 0.187265 45.51052z"  horiz-adv-x="1024" />

    
    <glyph glyph-name="random" unicode="&#58881;" d="M508.903024-118.20956100000001c-14.460878 0-28.597073 4.096-40.885073 11.88839L87.514537 134.793366a70.181463 70.181463 0 0 0-32.54322 59.691707l0.199805 391.367805c0 24.600976 12.91239 47.703415 33.667122 60.316098L469.666341 877.642927a76.375415 76.375415 0 0 0 79.422439-0.049951l380.628293-231.848586a70.905756 70.905756 0 0 0 33.56722-60.341073l-0.199805-391.367805a70.181463 70.181463 0 0 0-32.618147-59.691707L549.713171-106.34614599999998a76.325463 76.325463 0 0 0-40.835122-11.838439zM125.952 195.58399999999995l379.579317-240.515122a6.343805 6.343805 0 0 1 6.76839 0L892.12878 195.18439l0.224781 389.12-379.67922 231.274147a6.343805 6.343805 0 0 1-6.593561 0l-379.879024-230.899513-0.249756-389.12z m382.326634-193.635902h-0.099902c-19.605854 0.024976-35.465366 16.259122-35.390439 36.214634l0.599414 252.153756c0.049951 19.930537 15.934439 36.039805 35.465366 36.039805h0.099903c19.605854-0.049951 35.465366-16.259122 35.415414-36.214634l-0.599414-252.153757c-0.049951-19.930537-15.934439-36.039805-35.490342-36.039804z m-39.31161 365.917658a42.20878 42.20878 0 0 0-20.48 5.244878l-268.487804 148.929561c-18.706732 10.339902-24.650927 32.568195-13.312 49.626537 11.338927 17.083317 35.665171 22.503024 54.346926 12.163122l268.487805-148.929561c18.681756-10.339902 24.625951-32.568195 13.287025-49.651513-7.442732-11.189073-20.48-17.383024-33.841952-17.383024z m121.431415-9.915317c-11.988293 0-23.676878 6.193951-30.370341 17.383024a36.514341 36.514341 0 0 0 11.938341 49.651513l240.839805 148.904585a35.115707 35.115707 0 0 0 48.75239-12.138146 36.514341 36.514341 0 0 0-11.913366-49.651513l-240.86478-148.904585c-5.74439-3.546537-12.113171-5.244878-18.382049-5.244878z m-247.208585 247.058732c0-24.401171 19.431024-44.206829 43.407609-44.20683s43.40761 19.805659 43.40761 44.20683c0 24.426146-19.431024 44.206829-43.40761 44.206829s-43.40761-19.780683-43.407609-44.206829zM255.700293 255.45053700000005c0-24.401171 19.431024-44.206829 43.407609-44.20683s43.40761 19.805659 43.40761 44.20683c0 24.426146-19.431024 44.206829-43.40761 44.206829s-43.40761-19.780683-43.407609-44.206829zM582.930732 605.034146c0-24.401171 19.431024-44.206829 43.407609-44.206829s43.40761 19.805659 43.40761 44.206829c0 24.426146-19.431024 44.206829-43.40761 44.20683s-43.40761-19.780683-43.407609-44.20683z m12.987317-466.744195c0-24.426146 19.406049-44.206829 43.382634-44.206829 23.976585 0 43.40761 19.780683 43.40761 44.206829 0 24.401171-19.431024 44.206829-43.40761 44.206829s-43.40761-19.805659-43.40761-44.206829z m91.160975 117.085659c0-24.401171 19.406049-44.206829 43.382635-44.20683 23.976585 0 43.432585 19.805659 43.432585 44.20683 0 24.426146-19.456 44.206829-43.432585 44.206829-23.976585 0-43.40761-19.780683-43.40761-44.206829z m91.160976 117.13561c0-24.426146 19.431024-44.206829 43.382634-44.20683 23.976585 0 43.432585 19.780683 43.432586 44.20683 0 24.401171-19.456 44.206829-43.432586 44.206829-23.976585 0-43.40761-19.805659-43.40761-44.206829z"  horiz-adv-x="1024" />

    
    <glyph glyph-name="sousuo" unicode="&#59114;" d="M1010.322286-99.474286a43.593143 43.593143 0 0 0-61.659429 0l-203.702857 203.776A448.219429 448.219429 0 0 0 451.291429-5.12a450.340571 450.340571 0 1 0 450.340571 450.340571 448 448 0 0 0-96.329143-277.796571l205.165714-205.165714a43.666286 43.666286 0 0 0 0-61.586286zM449.828571 822.857143a376.685714 376.685714 0 1 1 0-753.371429 376.685714 376.685714 0 0 1 0 753.371429z"  horiz-adv-x="1024" />

    
    <glyph glyph-name="tongji" unicode="&#58929;" d="M97.06666667 357.22666667c0 54.93333333 10.88 108.48 32.42666666 158.93333333 20.8 48.85333333 50.56 92.8 88.42666667 130.66666667 37.86666667 37.86666667 81.81333333 67.62666667 130.66666667 88.42666666 37.97333333 16.21333333 77.54666667 26.34666667 118.18666666 30.4v-449.28h40.74666667l408.53333333-0.10666666c-4.05333333-40.64-14.29333333-80.21333333-30.4-118.18666667-20.8-48.85333333-50.56-92.8-88.42666666-130.66666667-37.86666667-37.86666667-81.81333333-67.62666667-130.66666667-88.42666666-50.56-21.54666667-104-32.42666667-158.93333333-32.42666667s-108.48 10.88-158.93333334 32.42666667c-48.85333333 20.8-92.8 50.56-130.66666666 88.42666666s-67.62666667 81.81333333-88.42666667 130.66666667c-21.65333333 50.66666667-32.53333333 104.10666667-32.53333333 159.14666667m-40.74666667 0c0-247.57333333 203.73333333-451.30666667 451.30666667-451.30666667 247.57333333 0 451.2 203.62666667 451.30666666 451.2l-451.30666666 0.10666667V808.53333333C259.94666667 808.53333333 56.32 604.8 56.32 357.22666667zM589.12 806.72c39.89333333-3.94666667 78.82666667-13.76 116.26666667-29.22666667 50.02666667-20.69333333 94.93333333-50.66666667 133.22666666-88.96 38.29333333-38.29333333 68.26666667-83.09333333 88.96-133.12 15.46666667-37.44 25.28-76.37333333 29.22666667-116.26666666H589.12V806.72m-40.74666667 42.77333333v-451.30666666h451.30666667c0 119.68-47.57333333 234.45333333-132.16 319.04-84.69333333 84.69333333-199.57333333 132.26666667-319.14666667 132.26666666z"  horiz-adv-x="1024" />

    
    <glyph glyph-name="arrow-left-bold" unicode="&#59013;" d="M384 384L731.733333 693.333333c17.066667 14.933333 19.2 42.666667 4.266667 59.733334-14.933333 17.066667-42.666667 19.2-59.733333 4.266666l-384-341.333333c-10.666667-8.533333-14.933333-19.2-14.933334-32s4.266667-23.466667 14.933334-32l384-341.333333c8.533333-6.4 19.2-10.666667 27.733333-10.666667 12.8 0 23.466667 4.266667 32 14.933333 14.933333 17.066667 14.933333 44.8-4.266667 59.733334L384 384z"  horiz-adv-x="1024" />

    
    <glyph glyph-name="shanchu" unicode="&#58880;" d="M519.620465 896c-103.924093 0-188.511256-82.467721-192.083349-185.820279H85.015814A48.91386 48.91386 0 0 1 36.101953 661.313488a48.91386 48.91386 0 0 1 48.913861-48.866232h54.010046V64.65488400000004c0-102.852465 69.822512-186.844279 155.909954-186.844279h439.200744c86.087442 0 155.909953 83.491721 155.909954 186.844279V611.899535h48.91386a48.91386 48.91386 0 0 1 48.913861 48.890046 48.91386 48.91386 0 0 1-48.913861 48.866233h-227.756651A191.559442 191.559442 0 0 1 519.620465 896z m-107.234232-177.080558c3.548279 49.771163 46.627721 88.540279 99.851907 88.540279 53.224186 0 96.327442-38.745302 99.351813-88.540279h-199.20372z m-111.997024-752.044651c-30.981953 0-65.083535 39.15014-65.083535 95.041488V608.256h575.488v-546.839814c0-55.915163-34.077767-95.041488-65.059721-95.041488H300.389209v0.500093zM368.116093 99.185116c24.361674 0 44.27014 21.670698 44.27014 48.818605v278.623256c0 27.147907-19.908465 48.818605-44.27014 48.818604-24.33786 0-44.27014-21.670698-44.27014-48.818604v-278.623256c0-27.147907 19.360744-48.818605 44.293954-48.818605z m154.933581 0c24.361674 0 44.293953 21.670698 44.293954 48.818605v278.623256c0 27.147907-19.932279 48.818605-44.293954 48.818604-24.33786 0-44.27014-21.670698-44.270139-48.818604v-278.623256c0-27.147907 19.932279-48.818605 44.293953-48.818605z m132.810419 0c24.33786 0 44.27014 21.670698 44.27014 48.818605v278.623256c0 27.147907-19.932279 48.818605-44.27014 48.818604s-44.27014-21.670698-44.27014-48.818604v-278.623256c0-27.147907 19.360744-48.818605 44.27014-48.818605z"  horiz-adv-x="1024" />

    
    <glyph glyph-name="gengduo" unicode="&#58915;" d="M912.695652 384m-111.304348 0a5 5 0 1 0 222.608696 0 5 5 0 1 0-222.608696 0ZM512 384m-111.304348 0a5 5 0 1 0 222.608696 0 5 5 0 1 0-222.608696 0ZM111.304348 384m-111.304348 0a5 5 0 1 0 222.608696 0 5 5 0 1 0-222.608696 0Z"  horiz-adv-x="1024" />

    


  </font>
</defs>
</svg>
